<svg width="30" height="30" viewBox="0 0 30 30" fill="none" xmlns="http://www.w3.org/2000/svg">
<path d="M0 0H4.15238V4.15238H0V0ZM4.15238 0H8.30476V4.15238H4.15238V0ZM8.30476 0H12.4571V4.15238H8.30476V0ZM12.4571 0H16.6095V4.15238H12.4571V0ZM16.6095 0H20.7619V4.15238H16.6095V0ZM20.7619 0H24.9143V4.15238H20.7619V0ZM24.9143 0H29.0667V4.15238H24.9143V0ZM0 4.15238H4.15238V8.30476H0V4.15238ZM24.9143 4.15238H29.0667V8.30476H24.9143V4.15238ZM0 8.30476H4.15238V12.4571H0V8.30476ZM8.30476 8.30476H12.4571V12.4571H8.30476V8.30476ZM12.4571 8.30476H16.6095V12.4571H12.4571V8.30476ZM16.6095 8.30476H20.7619V12.4571H16.6095V8.30476ZM24.9143 8.30476H29.0667V12.4571H24.9143V8.30476ZM0 12.4571H4.15238V16.6095H0V12.4571ZM8.30476 12.4571H12.4571V16.6095H8.30476V12.4571ZM12.4571 12.4571H16.6095V16.6095H12.4571V12.4571ZM16.6095 12.4571H20.7619V16.6095H16.6095V12.4571ZM24.9143 12.4571H29.0667V16.6095H24.9143V12.4571ZM0 16.6095H4.15238V20.7619H0V16.6095ZM8.30476 16.6095H12.4571V20.7619H8.30476V16.6095ZM12.4571 16.6095H16.6095V20.7619H12.4571V16.6095ZM16.6095 16.6095H20.7619V20.7619H16.6095V16.6095ZM24.9143 16.6095H29.0667V20.7619H24.9143V16.6095ZM0 20.7619H4.15238V24.9143H0V20.7619ZM24.9143 20.7619H29.0667V24.9143H24.9143V20.7619ZM0 24.9143H4.15238V29.0667H0V24.9143ZM4.15238 24.9143H8.30476V29.0667H4.15238V24.9143ZM8.30476 24.9143H12.4571V29.0667H8.30476V24.9143ZM12.4571 24.9143H16.6095V29.0667H12.4571V24.9143ZM16.6095 24.9143H20.7619V29.0667H16.6095V24.9143ZM20.7619 24.9143H24.9143V29.0667H20.7619V24.9143ZM24.9143 24.9143H29.0667V29.0667H24.9143V24.9143Z" fill="white"/>
</svg>
